<svg xmlns="http://www.w3.org/2000/svg" width="490" height="182" viewBox="0 0 490 182"><title>CustomInk Inky Logo</title><g fill="#FA3C00"><path d="M150.6 111.6C148.9 110.8 136.6 104.2 125.7 91.5 123.8 89.4 125.2 87.4 127.6 86.9 143.2 82.6 148.8 73.1 161.5 73.3 167.5 73.2 172.9 75.5 177.1 80.5 184.5 89.3 183.3 102.3 174.5 109.7 167.6 115.5 157.9 116 150.6 111.6L150.6 111.6Z"/><path d="M122.6 145.7C125.8 153.9 133.9 159.5 143.1 159.2 154.8 158.8 164 149 163.6 137.3 163.2 126.7 156.2 119.5 145 117 135.4 113.9 127.8 113.5 117.7 108.3 115.3 106.6 113.1 108 113.3 110.8 113.9 127.9 121.8 143.9 122.6 145.7L122.6 145.7Z"/><path d="M31.8 111.6C33.5 110.8 45.8 104.2 56.7 91.5 58.6 89.4 57.2 87.4 54.8 86.9 39.2 82.6 33.6 73.1 20.9 73.3 14.9 73.2 9.5 75.5 5.3 80.5 -2.1 89.3-0.9 102.3 7.9 109.7 14.8 115.5 24.5 116 31.8 111.6L31.8 111.6Z"/><path d="M59.8 145.7C60.6 144 68.4 127.9 69.2 110.8 69.4 108 67.3 106.6 64.8 108.3 54.7 113.5 47.1 113.8 37.5 117 26.2 119.6 19.2 126.8 18.9 137.3 18.5 149 27.7 158.8 39.4 159.2 48.6 159.5 56.7 153.9 59.8 145.7L59.8 145.7Z"/><path d="M124.3 53C124.3 57.4 123.5 61.5 121.9 65.3 121.5 66.3 121.6 67.3 122.6 67.7 124 68.3 126.5 69 130.6 69.1 140 69.1 154 64.3 155.2 64.1 161.1 62.5 166.2 61.8 171.5 64.3 174.4 65.7 177.4 63.5 176.3 60.4 163.6 25.9 132.5 0.3 91.1 0.3 49.7 0.3 18.6 25.9 5.9 60.4 4.8 63.5 7.8 65.7 10.7 64.3 16 61.8 21.1 62.5 27 64.1 28.2 64.3 42.2 69.1 51.6 69.1 55.7 69 58.2 68.3 59.6 67.7 60.6 67.3 60.7 66.3 60.3 65.3 58.8 61.5 57.9 57.3 57.9 53 57.9 34.8 72.7 20.1 91 20.1 109.5 20.1 124.3 34.8 124.3 53Z"/><path d="M79.7 67.3C79.3 66.3 79.5 64.4 81.4 63.5 81.9 63.3 82.5 63.2 82.9 63.2 83.3 63.1 83.6 62.8 83.6 62.3 83.6 62 83.5 61.8 83.2 61.6L83.2 61.6C82 60.7 80.5 60.1 78.8 60.1 74.8 60.1 71.5 63.4 71.5 67.4 71.5 71.4 74.8 74.7 78.8 74.7 82.1 74.7 84.9 72.5 85.8 69.5L85.8 69.5C85.9 69.2 85.8 68.9 85.7 68.7 85.5 68.5 85.3 68.3 85 68.3 84.7 68.3 84.3 68.6 83.9 68.7 81.6 70 80.1 68.3 79.7 67.3Z"/><path d="M104.6 67.3C104.2 66.3 104.4 64.4 106.3 63.5 106.8 63.3 107.4 63.2 107.8 63.2 108.2 63.1 108.5 62.8 108.5 62.3 108.5 62 108.4 61.8 108.1 61.6L108.1 61.6C106.9 60.7 105.4 60.1 103.7 60.1 99.7 60.1 96.4 63.4 96.4 67.4 96.4 71.4 99.7 74.7 103.7 74.7 107 74.7 109.8 72.5 110.7 69.5L110.7 69.5C110.8 69.2 110.7 68.9 110.6 68.7 110.4 68.5 110.2 68.3 109.9 68.3 109.6 68.3 109.2 68.6 108.8 68.7 106.4 70 105 68.3 104.6 67.3Z"/><path d="M91.2 92.2C96.6 92.1 100.7 89.4 103.2 85.4 104.1 84 103.7 81.8 101 82.7 98 83.9 94.6 84.6 91.2 84.6L91.2 84.6C87.7 84.6 84.4 83.9 81.4 82.7 78.7 81.8 78.4 84 79.2 85.4 81.7 89.4 85.8 92.1 91.2 92.2L91.2 92.2Z"/><path d="M91.2 181.6C105.3 181.6 116.9 170.2 116.9 155.5 116.9 152.6 116.1 149 115.1 146.5 111.9 138.8 98.6 127.4 94 117.7 93.4 116.2 92.4 115.5 91.3 115.5 90.2 115.5 89.1 116.2 88.6 117.7 84.1 127.4 70.7 138.9 67.5 146.5 66.5 149 65.7 152.6 65.7 155.5 65.5 170.2 77.1 181.6 91.2 181.6Z"/><path d="M231.1 99.6L223.9 99.6C222.4 99.6 221.1 100.8 221.1 102.4L221.1 147C221.1 148.5 222.3 149.8 223.9 149.8L231.1 149.8C232.6 149.8 233.9 148.6 233.9 147L233.9 102.4C233.9 100.9 232.6 99.6 231.1 99.6Z"/><path d="M241.9 101.8L241.9 147.5C241.9 148.7 242.9 149.7 244.1 149.7L251.6 149.7C252.8 149.7 253.8 148.7 253.8 147.5L253.8 120.5 271.1 148.7C271.5 149.3 272.2 149.7 273 149.7L281.2 149.7C282.4 149.7 283.4 148.7 283.4 147.5L283.4 101.8C283.4 100.6 282.4 99.6 281.2 99.6L273.8 99.6C272.6 99.6 271.6 100.6 271.6 101.8L271.6 127.3 255.1 100.6C254.7 100 254 99.6 253.2 99.6L244.1 99.6C242.9 99.6 241.9 100.6 241.9 101.8Z"/><path d="M318.4 148.5C318.8 149.2 319.5 149.7 320.4 149.7L328.7 149.7C330.4 149.7 331.5 147.9 330.7 146.4L316.3 119.3 328.6 103.2C329.7 101.7 328.7 99.6 326.8 99.6L318.3 99.6C317.6 99.6 316.9 99.9 316.5 100.5L303.7 117.7 303.7 101.9C303.7 100.7 302.7 99.7 301.5 99.7L293.9 99.7C292.7 99.7 291.7 100.7 291.7 101.9L291.7 147.6C291.7 148.8 292.7 149.8 293.9 149.8L301.5 149.8C302.7 149.8 303.7 148.8 303.7 147.6L303.7 133.8 307.7 128.4 318.4 148.5Z"/><path d="M284 83.8C295.4 83.8 304.1 77.1 304.1 65.1L304.1 35.3C304.1 34.1 303.1 33.1 301.9 33.1L294.4 33.1C293.2 33.1 292.2 34.1 292.2 35.3L292.2 65.5C292.2 70 288.1 72.4 284 72.4 280 72.4 275.9 70 275.9 65.5L275.9 35.3C275.9 34.1 274.9 33.1 273.7 33.1L266.1 33.1C264.9 33.1 263.9 34.1 263.9 35.3L263.9 65C263.9 77 272.6 83.8 284 83.8Z"/><path d="M309.5 76.5C313.7 80.6 319.1 83.8 327.8 83.8 339.4 83.8 346.1 76 346.1 67.4 346.1 57.5 338.2 54.3 331.5 52.3 326.6 50.8 322.3 49.9 322.3 46.9 322.3 44.6 324.1 43.1 327.6 43.1 330.3 43.1 332.4 44.1 334.7 45.9 335.6 46.6 336.8 46.9 338 46L343.5 41.8C344.6 41 344.7 39.3 343.6 38.4 340 35 335.1 32.4 327.6 32.4 317.3 32.4 310.2 39 310.2 47.7 310.2 57.6 317.9 60.3 324.5 62.2 329.4 63.6 333.7 64.7 333.7 67.8 333.7 70.3 331.4 72.4 327.8 72.4 324.7 72.4 321.6 71.1 319 68.7 318.1 67.9 316.9 67.6 315.9 68.3L309.6 73.3C308.7 74 308.6 75.5 309.5 76.5Z"/><path d="M410.3 83.8C396 83.8 384.6 72.3 384.7 58.1 384.7 43.9 396 32.4 410.3 32.4 424.6 32.4 436 43.9 436 58.1 436 72.3 424.7 83.8 410.3 83.8ZM410.3 72.2C418.3 72.2 424.2 65.8 424.3 58 424.3 50.1 418.2 43.7 410.3 43.7 402.4 43.7 396.5 50.1 396.5 58 396.5 65.8 402.3 72.2 410.3 72.2Z"/><path d="M237.4 83.8C247.2 83.8 254.9 78.9 259.4 71.7 260.1 70.6 259.7 69.1 258.6 68.5L251.5 64.7C250.4 64.1 249.2 64.5 248.5 65.5 246.2 69.2 242.5 71.8 237.3 71.8 229.3 71.8 223.9 65.6 223.9 57.9 223.9 50.1 229.5 43.9 237.4 43.9 242.1 43.9 245.7 45.9 248 49.3 248.7 50.3 250 50.6 251 50L257.7 45.8C258.8 45.1 259.1 43.6 258.3 42.6 253.6 36.3 246.1 32.2 237.3 32.2 222.5 32.2 211.6 43.3 211.6 57.9 211.7 72.3 221.9 83.8 237.4 83.8Z"/><path d="M360.8 80.8C360.8 82 361.8 83 363 83L370.2 83C371.4 83 372.4 82 372.4 80.8L372.4 44.4 382.1 44.4C383.3 44.4 384.3 43.4 384.3 42.2L384.3 35.2C384.3 34 383.3 33 382.1 33L350.9 33C349.7 33 348.7 34 348.7 35.2L348.7 42.2C348.7 43.4 349.7 44.4 350.9 44.4L360.7 44.4 360.7 80.8 360.8 80.8Z"/><path d="M467.3 66.4L477.6 52.1 477.6 80.8C477.6 82 478.6 83 479.8 83L487.3 83C488.5 83 489.5 82 489.5 80.8L489.5 35.2C489.5 34 488.5 33 487.3 33L478.7 33C478 33 477.3 33.3 476.9 33.9L466 49.5C465.8 49.7 465.6 49.9 465.3 49.9 465 49.9 464.8 49.7 464.6 49.5L453.7 33.9C453.3 33.3 452.6 33 451.9 33L443.3 33C442.1 33 441.1 34 441.1 35.2L441.1 80.8C441.1 82 442.1 83 443.3 83L450.8 83C452 83 453 82 453 80.8L453 52.1 463.3 66.4C463.9 67.2 464.6 67.6 465.3 67.6 466 67.6 466.8 67.2 467.3 66.4Z"/></g></svg>
