<svg xmlns="http://www.w3.org/2000/svg" viewBox="0 0 173.1 107.2"><style type="text/css">
  .st0{fill:#FFFFFF;}
</style><path class="st0" d="M15.7 18.1l-0.8 1.5c-2 3.6-0.8 7.3 3.2 7 3-0.2 5.3-1.6 7.1-3.5v0.1c0 1.9 1.4 2.9 3.3 2.8s4.1-1.4 5.5-4.1l1.3-2.3c1.2-0.1 2.4-0.4 3.5-0.9l-3.6 6.4 2.9-0.2 3.3-6c5.3-7.7 7.7-7.3 6.4-4.9L42 24.7l2.9-0.2 3.2-5.8c5.3-7.9 7.9-7.5 6.5-5.1l-3.7 6.7c-1.2 2.2-0.4 4.1 1.9 3.9 1.7-0.1 3.6-1.6 5.3-3.4 0.1 1.8 1.6 2.9 3.8 2.8 3.2-0.2 6.5-3 8.7-5.9 0.2-0.2-0.4-1-1.1-0.9V17c-2 2.5-4.7 4.6-6.6 4.7 -1.7 0.1-2.8-0.9-1.5-3.3l0.3-0.5c1.8 0.6 5.3 0 7.4-3.8l0.4-0.7c1.5-2.7 0.1-4.6-2.3-4.4 -2.3 0.2-4.1 1.5-5.3 3.7l-2.7 4.9L59 17.8c-2 2.5-4 4.5-5.3 4.6 -0.6 0-1-0.4-0.3-1.5l4.1-7.5c1.2-2.2 0.1-3.7-1.5-3.6 -1.5 0.1-3.2 1.3-5.1 3.8 1-2.1-0.2-3.4-1.7-3.3s-3.1 1.2-4.9 3.6l1.7-3.1L43.1 11l-2.5 4.4 -0.1 0.1c-1.2 1.4-2.8 2.2-4.3 2.5l0.1-0.2c1.9-3.4 1.2-7.1-2.9-6.8 -2.1 0.2-3.5 1.8-4.1 3.3l-3 5.6 0 0 -0.2 0.2c-2 2.5-4.6 4.6-7.4 4.8 -1.9 0.1-3.1-1.7-1.4-4.7l0.8-1.4c0.5 0 1 0.1 1.6 0 3-0.2 6.5-2 8.7-6.1 0.8-1.4 1.1-2.8 1.1-3.9 0-2.6-1.7-4.1-3.8-4 -1.6 0.1-3.4 1.3-4.7 3.7l-4.4 7.9c-1.7-0.8-2.5-2.3-2.5-3.9 0-1.3 0.8-2.7 1.8-3.7C16.1 7.7 15 7.2 15 7.2c-2 1.6-2.9 3.6-2.9 5.5C12.2 15 13.4 17.1 15.7 18.1zM64.3 13.2c1.6-2.9 4.5-2.7 2.8 0.4l-0.4 0.7c-1.4 2.4-3.2 2.5-4.3 2.2L64.3 13.2zM33.3 13c1.6-0.1 2 1.9 0.9 3.8l-0.7 1.1c-1.2-0.4-2-1.3-2-2.7C31.6 14.1 32.3 13 33.3 13zM28.2 21.6l1.9-3.4c0.7 0.7 1.6 1.1 2.6 1.4l-1.6 2.9c-0.6 1-1.5 1.6-2.2 1.6 -0.6 0-1.1-0.3-1.1-1C27.7 22.7 27.8 22.2 28.2 21.6zM23.3 9.5C24.1 8 25 7.3 25.8 7.3c1.1-0.1 1.6 0.6 1.6 1.6 0 2.6-3.2 7.6-7.6 8h-0.6L23.3 9.5z"/><path class="st0" d="M85.3 6.5C86.2 6.4 87 5.7 87 4.7s-0.7-1.6-1.7-1.5c-0.9 0-1.6 0.8-1.6 1.8S84.4 6.5 85.3 6.5z"/><path class="st0" d="M89.9 23.3l6.7-12.7c1.2-2.2 0.1-3.7-1.5-3.6 -1.2 0.1-2.5 0.8-3.9 2.4l1.1-1.9 -2.8 0.2 -4.4 8 -0.2 0.2c-2 2.5-4 4.5-5.3 4.6 -0.6 0-1-0.4-0.3-1.5l6.1-11 -2.8 0.2 -5.7 10.3c-1.2 2.2-0.4 4.1 1.9 3.9 1.1-0.1 2.4-0.8 3.6-1.8l-0.7 1.3 2.9-0.2 4.3-7.9c4.3-5.7 6.3-5.2 5-3l-6.6 12.5"/><path class="st0" d="M101 14.3h3.7l1.8 9c0.2 0.9 0.2 1.5 0.2 1.5l0 0c0 0 0-0.6 0.2-1.5l2.2-9h2.8l2.2 9c0.2 0.9 0.2 1.5 0.2 1.5l0 0c0 0 0-0.6 0.2-1.5l2-9h3.6l-3.6 14.4h-3.9l-1.8-7.3c-0.2-0.9-0.3-1.7-0.3-1.7l0 0c0 0-0.1 0.8-0.3 1.7l-1.8 7.3h-4L101 14.3z"/><path class="st0" d="M122.3 14.3h9v3h-5.5v2.6h4.4v3h-4.4v2.7h5.8v3h-9.3L122.3 14.3 122.3 14.3z"/><path class="st0" d="M134.3 14h3.1l-1.8 5.1h-2.4L134.3 14z"/><path class="st0" d="M139.2 14.3h5c1.5 0 2.2 0.1 2.8 0.3 1.6 0.6 2.7 2.1 2.7 4.2 0 1.5-0.7 3.2-2.2 3.9l0 0c0 0 0.2 0.3 0.5 0.9l2.8 5h-3.9l-2.6-4.8h-1.6v4.8h-3.5V14.3zM144.3 20.8c1.1 0 1.8-0.6 1.8-1.8 0-1.1-0.4-1.7-2.2-1.7h-1.2v3.5H144.3z"/><path class="st0" d="M152.9 14.3h9v3h-5.5v2.6h4.4v3h-4.4v2.7h5.8v3h-9.3V14.3z"/><path class="st0" d="M88.5 32.3c-0.9 0-1.9-0.3-2.6-0.9 -1-0.9-1.7-2.5-0.5-4.6 0 0 0-0.1 0.1-0.1 -12.7 0.9-74.2 5.5-74.2 5.5C10.9 31 12 30.4 12 30.4c2.8-0.2 66.5-5.6 74.9-6.2 1.1-2 2.3-4.2 2.3-4.2l2.1 1.2c0 0-0.8 1.5-1.7 3.1 2.2 0.5 2.9 2.1 3.1 2.6 0.6 1.7-0.1 3.6-1.7 4.8C90.1 32 89.3 32.3 88.5 32.3zM88.2 26.4c-0.3 0.5-0.6 1-0.8 1.4 -0.3 0.5-0.5 1.3 0 1.7 0.4 0.4 1.3 0.5 1.9 0.1 0.7-0.5 1.1-1.3 0.8-2C90 26.9 89.3 26.5 88.2 26.4z"/><path class="st0" d="M13.4 86.3h5.5c0.8 0 1.4 0.1 2.1 0.4 0.6 0.3 1.2 0.6 1.6 1 0.5 0.4 0.8 1 1.1 1.5 0.3 0.6 0.4 1.2 0.4 1.9 0 0.5-0.1 1-0.2 1.5 -0.2 0.5-0.4 0.9-0.7 1.3 -0.3 0.4-0.6 0.7-1.1 1.1 -0.4 0.3-0.9 0.5-1.4 0.7l3.5 5.9h-1.9L19.1 96H15v5.5h-1.6V86.3zM15 87.8v6.8h3.7c0.6 0 1.1-0.1 1.5-0.3 0.5-0.2 0.8-0.5 1.2-0.8 0.3-0.3 0.6-0.7 0.7-1.1 0.2-0.4 0.3-0.8 0.3-1.3s-0.1-0.9-0.3-1.3c-0.2-0.4-0.4-0.8-0.7-1.1 -0.3-0.3-0.7-0.5-1.2-0.7s-1-0.3-1.5-0.3H15V87.8z"/><path class="st0" d="M26.7 86.3H36v1.5h-7.6v5.3H36v1.5h-7.6v5.3H36v1.6h-9.3V86.3z"/><path class="st0" d="M38.7 86.3h1.8l9 12.7V86.3h1.6v15.3h-1.7l-9.1-12.8v12.8h-1.6C38.7 101.6 38.7 86.3 38.7 86.3z"/><path class="st0" d="M61.5 101.7c-1.1 0-2.1-0.2-3.1-0.6 -0.9-0.4-1.8-1-2.5-1.7s-1.3-1.5-1.7-2.5c-0.4-0.9-0.6-2-0.6-3.1s0.2-2.1 0.6-3.1c0.4-0.9 1-1.8 1.7-2.5s1.5-1.3 2.5-1.7c0.9-0.4 2-0.6 3.1-0.6s2.1 0.2 3.1 0.6c0.9 0.4 1.8 1 2.5 1.7s1.3 1.5 1.7 2.5c0.4 0.9 0.6 2 0.6 3.1s-0.2 2.1-0.6 3.1c-0.4 0.9-1 1.8-1.7 2.5s-1.5 1.3-2.5 1.7C63.6 101.5 62.6 101.7 61.5 101.7zM61.5 100.2c0.9 0 1.7-0.2 2.4-0.5 0.8-0.3 1.4-0.8 2-1.4s1-1.2 1.3-2 0.5-1.6 0.5-2.4c0-0.9-0.2-1.7-0.5-2.4s-0.7-1.4-1.3-2c-0.6-0.6-1.2-1-2-1.4 -0.8-0.3-1.6-0.5-2.4-0.5 -0.9 0-1.7 0.2-2.4 0.5 -0.8 0.3-1.4 0.8-2 1.4s-1 1.2-1.3 2 -0.5 1.6-0.5 2.4c0 0.9 0.2 1.7 0.5 2.4 0.3 0.8 0.7 1.4 1.3 2s1.2 1 2 1.4C59.8 100 60.6 100.2 61.5 100.2z"/><path class="st0" d="M71.9 99.7h1.8l-1.4 4.3H71L71.9 99.7z"/><path class="st0" d="M80.5 86.3h1.8l9 12.7V86.3h1.6v15.3h-1.7l-9.1-12.8v12.8h-1.6C80.5 101.6 80.5 86.3 80.5 86.3z"/><path class="st0" d="M95.9 86.3h9.3v1.5h-7.6v5.3h7.6v1.5h-7.6v5.3h7.6v1.6h-9.3V86.3z"/><path class="st0" d="M107.1 86.3h1.7l4.7 12.9 4.7-12.9h1.7l-5.6 15.3h-1.7L107.1 86.3z"/><path class="st0" d="M124.4 86.3h1.8l5.8 15.3h-1.7l-1.5-3.9h-7l-1.5 3.9h-1.7L124.4 86.3zM122.4 96.1h5.8l-2.9-7.6L122.4 96.1z"/><path class="st0" d="M134.2 86.3h4.3c1.2 0 2.3 0.2 3.2 0.6 1 0.4 1.8 0.9 2.5 1.6s1.2 1.5 1.6 2.4c0.4 0.9 0.6 1.9 0.6 3s-0.2 2.1-0.6 3c-0.4 0.9-0.9 1.7-1.7 2.4 -0.7 0.7-1.5 1.2-2.5 1.6s-2 0.6-3.1 0.6h-4.3V86.3zM135.8 87.8V100h2.6c0.9 0 1.8-0.2 2.6-0.5s1.4-0.7 2-1.3c0.6-0.5 1-1.2 1.3-1.9 0.3-0.7 0.5-1.6 0.5-2.4 0-0.9-0.1-1.7-0.4-2.4s-0.7-1.4-1.3-1.9 -1.2-1-2-1.3 -1.7-0.5-2.7-0.5L135.8 87.8 135.8 87.8z"/><path class="st0" d="M153 86.3h1.8l5.8 15.3h-1.7l-1.5-3.9h-7l-1.5 3.9h-1.7L153 86.3zM151 96.1h5.8l-2.9-7.6L151 96.1z"/><path class="st0" d="M33.3 79.8c-3.1 0-6.1-0.6-8.8-1.8 -2.7-1.2-5.1-2.8-7.1-4.8s-3.6-4.4-4.8-7.2c-1.2-2.8-1.7-5.7-1.7-8.8s0.6-6.1 1.7-8.8c1.2-2.7 2.8-5.1 4.8-7.2 2-2 4.4-3.7 7.1-4.9s5.7-1.8 8.8-1.8 6.1 0.6 8.8 1.8 5.1 2.8 7.2 4.9c2 2 3.7 4.4 4.8 7.2 1.2 2.7 1.7 5.7 1.7 8.8s-0.6 6.1-1.7 8.8c-1.2 2.8-2.8 5.1-4.8 7.2 -2 2-4.4 3.6-7.2 4.8C39.4 79.2 36.5 79.8 33.3 79.8zM33.3 71.5c2 0 3.8-0.4 5.5-1.1 1.7-0.8 3.2-1.8 4.5-3.1 1.3-1.3 2.3-2.8 3-4.5 0.7-1.7 1.1-3.6 1.1-5.6s-0.4-3.8-1.1-5.6c-0.7-1.7-1.8-3.3-3-4.5 -1.3-1.3-2.8-2.3-4.5-3.1s-3.6-1.1-5.5-1.1c-2 0-3.8 0.4-5.5 1.1 -1.7 0.8-3.2 1.8-4.5 3.1s-2.3 2.8-3 4.5 -1.1 3.6-1.1 5.6 0.4 3.8 1.1 5.6c0.7 1.7 1.7 3.3 3 4.5 1.3 1.3 2.8 2.3 4.5 3.1S31.4 71.5 33.3 71.5z"/><path class="st0" d="M59.5 35.2h15.1c2.3 0 4.4 0.4 6.3 1.2s3.6 1.9 5 3.3c1.4 1.4 2.5 3.1 3.3 5s1.2 4 1.2 6.1c0 2.2-0.4 4.2-1.2 6.1s-1.9 3.6-3.3 5 -3.1 2.5-5 3.3 -4.1 1.2-6.4 1.2h-6.7v12.5h-8.4L59.5 35.2 59.5 35.2zM67.9 43v15.9H74c1.2 0 2.3-0.2 3.3-0.6 1-0.4 1.8-1 2.5-1.7s1.2-1.6 1.6-2.5c0.4-1 0.6-2 0.6-3.1s-0.2-2.1-0.6-3.1 -0.9-1.8-1.6-2.5 -1.5-1.3-2.5-1.7 -2.1-0.6-3.3-0.6h-6.1V43z"/><path class="st0" d="M94.4 35.2h26.1v8h-17.7v9.9h17.7v8h-17.7v10.1h17.7v8H94.4V35.2z"/><path class="st0" d="M124.8 35.2h9.5L153 64.8V35.2h8.4v44h-8.9l-19.3-30.6v30.6h-8.4C124.8 79.2 124.8 35.2 124.8 35.2z"/></svg>
