<svg xmlns="http://www.w3.org/2000/svg" width="100" height="51" viewBox="0 0 100 51"><title>Come in, we're OPEN</title><g fill="#FFF"><path d="M3.1 9.9L2.5 10.9C1.2 13.3 1.9 15.7 4.6 15.5 6.6 15.4 8.1 14.5 9.3 13.2 9.3 13.3 9.3 13.3 9.3 13.3 9.3 14.6 10.3 15.2 11.5 15.1 12.7 15 14.2 14.2 15.2 12.4L16 10.9C16.8 10.9 17.6 10.7 18.3 10.3L16 14.5 17.9 14.4 20 10.5C23.5 5.3 25.2 5.6 24.3 7.2L20.4 14.2 22.3 14.1 24.4 10.3C27.9 5 29.6 5.3 28.7 6.9L26.3 11.3C25.5 12.8 26.1 14 27.6 13.9 28.7 13.8 29.9 12.9 31.1 11.6 31.2 12.8 32.1 13.6 33.6 13.4 35.8 13.3 37.9 11.5 39.4 9.6 39.6 9.4 39.2 8.9 38.7 9L38.6 9.1C37.3 10.8 35.5 12.2 34.2 12.3 33.1 12.3 32.4 11.7 33.3 10.1L33.4 9.8C34.6 10.2 36.9 9.8 38.3 7.3L38.6 6.8C39.6 5 38.6 3.8 37.1 3.9 35.6 4 34.4 4.8 33.6 6.3L31.8 9.5 31.7 9.7C30.3 11.3 29 12.7 28.2 12.7 27.8 12.8 27.5 12.5 28 11.7L30.7 6.8C31.5 5.3 30.7 4.3 29.7 4.4 28.7 4.5 27.6 5.2 26.3 6.9 27 5.5 26.2 4.7 25.2 4.7 24.2 4.8 23.2 5.5 22 7.1L23.1 5.1 21.2 5.2 19.5 8.1 19.5 8.2C18.7 9.1 17.6 9.7 16.6 9.8L16.7 9.7C17.9 7.4 17.5 5 14.7 5.2 13.3 5.3 12.4 6.3 12 7.4L10.1 11C10.1 11 10.1 11 10.1 11L9.9 11.2C8.6 12.9 6.9 14.2 5.1 14.4 3.8 14.5 3 13.2 4.1 11.2L4.7 10.3C5 10.3 5.3 10.3 5.7 10.3 7.7 10.2 10 9 11.5 6.3 12 5.3 12.2 4.5 12.2 3.7 12.2 2 11.1 1 9.7 1.1 8.7 1.2 7.5 2 6.6 3.5L3.7 8.8C2.6 8.3 2 7.2 2 6.2 2 5.3 2.6 4.4 3.2 3.8 3.3 3 2.6 2.7 2.6 2.7 1.3 3.8 0.7 5.1 0.7 6.3 0.7 7.8 1.6 9.2 3.1 9.9ZM35.2 6.6C36.2 4.7 38.1 4.8 37 6.9L36.7 7.4C35.9 9 34.6 9 33.9 8.8L35.2 6.6ZM14.7 6.5C15.8 6.4 16 7.7 15.3 9L14.9 9.7C14.1 9.5 13.5 8.9 13.5 8 13.6 7.2 14 6.5 14.7 6.5ZM11.3 12.1L12.5 9.9C13 10.3 13.6 10.6 14.3 10.8L13.2 12.7C12.8 13.4 12.2 13.8 11.7 13.8 11.3 13.8 11 13.6 11 13.1 11 12.9 11.1 12.6 11.3 12.1ZM8 4.2C8.6 3.2 9.2 2.8 9.7 2.7 10.4 2.7 10.8 3.1 10.8 3.8 10.8 5.5 8.6 8.9 5.7 9.1L5.3 9.1 8 4.2Z"/><path d="M49.1 2.2C49.7 2.1 50.2 1.6 50.2 1 50.2 0.4 49.7 0 49.1 0 48.5 0.1 48 0.6 48 1.2 48 1.8 48.5 2.2 49.1 2.2Z"/><path d="M64.4 16.8L65.6 12C65.7 11.4 65.8 10.9 65.8 10.9L65.8 10.9C65.8 10.9 65.8 11.4 66 12L67.2 16.8 69.8 16.8 72.2 7.3 69.8 7.3 68.4 13.3C68.3 13.8 68.3 14.3 68.3 14.3L68.3 14.3C68.3 14.3 68.3 13.9 68.1 13.3L66.7 7.3 64.8 7.3 63.4 13.3C63.2 13.8 63.2 14.3 63.2 14.3L63.2 14.3C63.2 14.3 63.2 13.9 63.1 13.3L61.9 7.3 59.4 7.3 61.7 16.8 64.4 16.8 64.4 16.8Z"/><polygon points="79.7 14.8 75.9 14.8 75.9 13 78.8 13 78.8 11 75.9 11 75.9 9.3 79.5 9.3 79.5 7.3 73.5 7.3 73.5 16.8 79.7 16.8"/><polygon points="83.4 7.1 81.4 7.1 80.7 10.5 82.3 10.5"/><path d="M87 13.6L88.1 13.6 89.8 16.8 92.4 16.8 90.6 13.5C90.3 13.1 90.2 12.9 90.2 12.9L90.2 12.9C91.1 12.4 91.6 11.3 91.6 10.3 91.6 8.9 90.9 7.9 89.9 7.5 89.5 7.4 89 7.3 88 7.3L84.7 7.3 84.7 16.8 87 16.8 87 13.6ZM87 9.3L87.8 9.3C89 9.3 89.3 9.7 89.3 10.5 89.3 11.2 88.8 11.6 88 11.6L87 11.6 87 9.3Z"/><polygon points="96.1 14.8 96.1 13 99 13 99 11 96.1 11 96.1 9.3 99.7 9.3 99.7 7.3 93.8 7.3 93.8 16.8 99.9 16.8 99.9 14.8"/><path d="M51.8 13.9C51.9 13.7 52 13.5 52.1 13.3L52.1 13.3 52.6 12.5C52.8 12.1 52.9 11.8 52.9 11.8L52.9 11.8 56.6 4.9C57.4 3.4 56.6 2.4 55.6 2.5 54.8 2.6 53.9 3.1 53 4.1L53.7 2.8 51.8 3 48.9 8.3 48.7 8.4C47.4 10.1 46.1 11.4 45.2 11.5 44.8 11.5 44.6 11.2 45 10.5L49 3.2 47.2 3.3 43.4 10.1C42.6 11.6 43.2 12.8 44.7 12.7 45.4 12.6 46.3 12.2 47.1 11.5L46.6 12.4 48.5 12.2 51.4 7C54.2 3.2 55.5 3.6 54.7 5L50.7 12.7C50.5 13.1 50.3 13.4 50 13.8 44.5 14.2 2.4 17.8 0.5 17.9 0.5 17.9-0.2 18.3 0.1 19.1 0.1 19.1 40.7 16 49.2 15.5 49.1 15.5 49.1 15.5 49.1 15.6 48.4 16.9 48.8 18 49.5 18.6 50 19 50.6 19.2 51.2 19.2 51.7 19.2 52.3 19.1 52.7 18.8 53.8 18 54.3 16.7 53.9 15.6 53.7 15.2 53.2 14.2 51.8 13.9ZM51.8 17.5C51.4 17.8 50.8 17.7 50.5 17.4 50.1 17.1 50.3 16.6 50.5 16.3 50.6 16 50.8 15.7 51 15.4 51.7 15.4 52.2 15.7 52.3 16.1 52.5 16.6 52.3 17.1 51.8 17.5Z"/><path d="M15.2 21.1C6.7 21.1 0.5 27.4 0.5 35.5 0.5 43.7 6.7 50.1 15.2 50.1 23.6 50.1 29.8 43.7 29.8 35.5 29.9 27.4 23.7 21.1 15.2 21.1ZM21.7 36.4C21 38.1 17.5 41.6 16 44.3 15.7 45.1 14.8 45.1 14.4 44.3 13.2 41.6 9.4 38.4 8.5 36.2 8.3 35.6 8.1 34.8 8 34.1L8 33.7C8 29.6 11.2 26.4 15.2 26.4 19.1 26.4 22.3 29.6 22.3 33.6 22.3 34.6 22.1 35.6 21.7 36.4Z"/><path d="M44 21.6L32.3 21.6 32.3 49.7 39.2 49.7 39.2 41 44 41C49.4 41 53.1 36.9 53.1 31.3 53.1 25.6 49.4 21.6 44 21.6ZM42.6 35.1L39.2 35.1 39.2 27.5 42.7 27.5C45 27.5 46.1 29 46.1 31.3 46.1 33.5 45 35.1 42.6 35.1Z"/><polygon points="62.4 38.6 71 38.6 71 32.8 62.4 32.8 62.4 27.6 73.1 27.6 73.1 21.8 55.6 21.8 55.6 49.8 73.7 49.8 73.7 43.9 62.4 43.9"/><path d="M93 34.7C93 36.5 93.3 39.5 93.3 39.5L93.2 39.5C93.2 39.5 92 36.6 90.9 34.7L83.1 21.6 76.2 21.6 76.2 49.7 83 49.7 83 36.6C83 34.8 82.7 31.8 82.7 31.8L82.8 31.8C82.8 31.8 84.1 34.8 85.2 36.6L93 49.7 99.9 49.7 99.9 21.6 93 21.6 93 34.7 93 34.7Z"/><path d="M15.2 30.3C13.5 30.3 12.1 31.7 12.1 33.4 12.1 35.1 13.5 36.5 15.2 36.5 16.9 36.5 18.3 35.1 18.3 33.4 18.3 31.7 16.9 30.3 15.2 30.3Z"/></g></svg>
