<svg xmlns="http://www.w3.org/2000/svg" version="1.1" x="0" y="0" viewBox="0 0 173.1 107.2" xml:space="preserve"><style type="text/css">
	.st0{fill:#FFFFFF;}
</style><path class="st0" d="M15.7 18.2l-0.8 1.5c-2 3.6-0.8 7.3 3.2 7 3-0.2 5.3-1.7 7.2-3.5v0.1c0 1.9 1.5 2.9 3.3 2.8 1.9-0.1 4.1-1.4 5.6-4.1l1.3-2.3c1.2-0.1 2.4-0.4 3.5-0.9l-3.6 6.5 2.9-0.2 3.3-6c5.3-7.8 7.8-7.3 6.4-4.9l-6 10.6 2.9-0.2 3.2-5.8c5.4-8 7.9-7.6 6.5-5.1l-3.7 6.7c-1.2 2.2-0.4 4.1 1.9 3.9 1.7-0.1 3.6-1.6 5.4-3.4 0.1 1.8 1.6 2.9 3.9 2.8 3.2-0.2 6.5-3 8.8-5.9 0.2-0.2-0.4-1-1.1-0.9l-0.2 0.2c-2.1 2.5-4.7 4.6-6.7 4.8 -1.8 0.1-2.8-0.9-1.5-3.3l0.3-0.5c1.8 0.6 5.3 0 7.4-3.8l0.4-0.7c1.5-2.7 0.1-4.6-2.3-4.4 -2.3 0.2-4.1 1.5-5.3 3.7l-2.8 4.9H59c-2.1 2.5-4.1 4.6-5.3 4.7 -0.6 0-1-0.4-0.3-1.5l4.1-7.5c1.2-2.3 0.1-3.7-1.5-3.6 -1.5 0.1-3.2 1.3-5.1 3.8 1-2.1-0.2-3.4-1.7-3.3s-3.1 1.2-4.9 3.6l1.7-3.1L43.2 11l-2.5 4.4 -0.1 0.1c-1.2 1.4-2.8 2.3-4.4 2.5l0.1-0.2c1.9-3.4 1.2-7.1-3-6.8 -2.1 0.2-3.5 1.8-4.1 3.3l-3 5.6 0 0L26 20.1c-2.1 2.5-4.6 4.6-7.4 4.8 -1.9 0.1-3.1-1.7-1.4-4.7l0.8-1.5c0.5 0 1 0.1 1.6 0 3-0.2 6.5-2 8.7-6.1 0.8-1.5 1.1-2.8 1.1-3.9 0-2.6-1.7-4.1-3.8-4C24 4.8 22.2 6 20.9 8.4l-4.4 8c-1.7-0.8-2.5-2.3-2.5-3.9 0-1.3 0.8-2.7 1.8-3.7 0.3-1-0.8-1.5-0.8-1.5 -2 1.6-2.9 3.6-2.9 5.5C12.1 15.1 13.4 17.2 15.7 18.2zM64.4 13.2c1.6-2.9 4.5-2.7 2.8 0.4l-0.4 0.7c-1.4 2.4-3.2 2.5-4.3 2.2L64.4 13.2zM33.3 13c1.6-0.1 2 1.9 0.9 3.8L33.6 18c-1.2-0.4-2-1.3-2-2.7C31.6 14.2 32.3 13.1 33.3 13zM28.2 21.6l1.9-3.4c0.7 0.7 1.6 1.1 2.7 1.4l-1.6 2.9c-0.6 1-1.5 1.6-2.2 1.6 -0.6 0-1.1-0.3-1.1-1C27.7 22.7 27.8 22.3 28.2 21.6zM23.2 9.6C24 8.1 25 7.4 25.8 7.3c1.1-0.1 1.6 0.6 1.6 1.6 0 2.7-3.2 7.7-7.7 8h-0.6L23.2 9.6zM85.5 6.5c0.9-0.1 1.7-0.8 1.7-1.8s-0.7-1.6-1.7-1.5c-0.9 0-1.6 0.8-1.6 1.8S84.6 6.6 85.5 6.5zM90.2 23.4l6.7-12.8C98.2 8.3 97 6.9 95.4 7c-1.2 0.1-2.5 0.8-3.9 2.4l1.1-1.9 -2.8 0.2 -4.5 8L85 15.9c-2.1 2.5-4.1 4.6-5.3 4.7 -0.6 0-1-0.4-0.3-1.5L85.5 8l-2.8 0.2L77 18.5c-1.2 2.2-0.4 4.1 1.9 3.9 1.2-0.1 2.4-0.8 3.6-1.8l-0.7 1.3 2.9-0.2 4.4-7.9c4.4-5.8 6.3-5.2 5.1-3l-6.6 12.5"/><path class="st0" d="M101.3 14.3h3.7l1.8 9c0.2 0.9 0.2 1.5 0.2 1.5l0 0c0 0 0-0.6 0.2-1.5l2.2-9h2.8l2.2 9c0.2 0.9 0.2 1.5 0.2 1.5l0 0c0 0 0-0.6 0.2-1.5l2-9h3.7L117 28.7h-4l-1.8-7.3c-0.2-0.9-0.3-1.7-0.3-1.7l0 0c0 0-0.1 0.8-0.3 1.7l-1.8 7.3h-4L101.3 14.3zM122.7 14.3h9v3h-5.5V20h4.4v3h-4.4v2.7h5.8v3h-9.3L122.7 14.3 122.7 14.3zM134.7 14h3.1l-1.8 5.1h-2.4L134.7 14zM139.7 14.3h5c1.5 0 2.2 0.1 2.8 0.3 1.6 0.6 2.7 2.1 2.7 4.2 0 1.5-0.7 3.2-2.2 3.9l0 0c0 0 0.2 0.3 0.5 0.9l2.8 5h-3.9l-2.6-4.9h-1.7v4.9h-3.5L139.7 14.3 139.7 14.3zM144.7 20.8c1.1 0 1.8-0.6 1.8-1.8 0-1.1-0.4-1.7-2.2-1.7h-1.2v3.5H144.7zM153.4 14.3h9v3H157V20h4.4v3H157v2.7h5.8v3h-9.3V14.3H153.4z"/><path class="st0" d="M88.7 32.4c-0.9 0-1.9-0.3-2.6-0.9 -1-0.9-1.7-2.6-0.6-4.6 0 0 0-0.1 0.1-0.1 -12.8 0.9-74.5 5.5-74.5 5.5 -0.4-1.2 0.7-1.8 0.7-1.8 2.8-0.2 66.7-5.7 75.2-6.2 1.1-2 2.3-4.2 2.3-4.2l2.1 1.2c0 0-0.8 1.5-1.7 3.2 2.2 0.5 2.9 2.1 3.1 2.6 0.6 1.7-0.1 3.6-1.7 4.8C90.4 32.2 89.5 32.4 88.7 32.4zM88.4 26.5c-0.3 0.5-0.6 1-0.8 1.4 -0.3 0.5-0.5 1.3 0 1.7 0.4 0.4 1.3 0.5 2 0.1 0.7-0.5 1.1-1.3 0.9-2S89.5 26.6 88.4 26.5z"/><path class="st0" d="M13.3 86.3h4.3c1.2 0 2.3 0.2 3.2 0.6 1 0.4 1.8 0.9 2.5 1.6s1.2 1.5 1.6 2.4 0.6 1.9 0.6 3 -0.2 2.1-0.6 3 -0.9 1.7-1.6 2.4c-0.7 0.7-1.5 1.2-2.5 1.6s-2 0.6-3.1 0.6h-4.3V86.3H13.3zM14.9 87.8V100h2.6c0.9 0 1.8-0.2 2.5-0.5 0.8-0.3 1.4-0.7 2-1.3 0.6-0.5 1-1.2 1.3-1.9 0.3-0.7 0.5-1.5 0.5-2.4s-0.1-1.7-0.4-2.4c-0.3-0.7-0.7-1.4-1.3-1.9 -0.5-0.5-1.2-1-2-1.3s-1.7-0.5-2.6-0.5L14.9 87.8 14.9 87.8zM32.1 86.3h1.8l5.8 15.2H38l-1.5-3.9h-6.9l-1.5 3.9h-1.7L32.1 86.3zM30.1 96.1h5.8L33 88.5 30.1 96.1zM41.8 86.3h1.6V100h6.8v1.6h-8.4C41.8 101.6 41.8 86.3 41.8 86.3zM52.9 86.3h1.6V100h6.8v1.6h-8.4V86.3zM69.2 86.3H71l5.8 15.2h-1.7l-1.5-3.9h-6.9l-1.5 3.9h-1.7L69.2 86.3zM67.2 96.1H73l-2.9-7.6L67.2 96.1zM83.6 101.7c-1.2 0-2.3-0.2-3.2-0.7 -0.9-0.5-1.6-1.2-2.2-2.1l1.4-1c0.5 0.8 1.1 1.4 1.7 1.8s1.4 0.6 2.3 0.6c0.5 0 0.9-0.1 1.3-0.2s0.7-0.3 1-0.6c0.3-0.3 0.5-0.6 0.7-0.9 0.2-0.4 0.2-0.7 0.2-1.2s-0.1-0.9-0.3-1.2c-0.2-0.3-0.5-0.6-0.8-0.8 -0.3-0.2-0.7-0.4-1.2-0.6 -0.4-0.2-0.9-0.3-1.4-0.5s-1-0.4-1.6-0.6c-0.5-0.2-1-0.5-1.4-0.8s-0.7-0.7-1-1.2 -0.4-1-0.4-1.7c0-0.6 0.1-1.1 0.4-1.6 0.2-0.5 0.6-0.9 1-1.3s0.9-0.6 1.5-0.8c0.6-0.2 1.2-0.3 1.9-0.3 1.1 0 2 0.2 2.8 0.6s1.4 1 2 1.7l-1.3 1c-0.8-1.2-1.9-1.8-3.4-1.8 -0.4 0-0.8 0.1-1.2 0.2 -0.4 0.1-0.7 0.3-0.9 0.5 -0.3 0.2-0.5 0.5-0.6 0.8s-0.2 0.6-0.2 1 0.1 0.8 0.3 1.1c0.2 0.3 0.5 0.6 0.8 0.8s0.7 0.4 1.2 0.6c0.4 0.2 0.9 0.3 1.4 0.5s1 0.4 1.6 0.6c0.5 0.2 1 0.5 1.4 0.8s0.7 0.7 1 1.2 0.4 1.1 0.4 1.8c0 0.6-0.1 1.1-0.3 1.6 -0.2 0.5-0.6 1-1 1.4s-0.9 0.7-1.5 1C85 101.6 84.4 101.7 83.6 101.7zM91 99.7h1.8l-1.4 4.3h-1.3L91 99.7zM103.6 87.8H99v-1.5h10.8v1.5h-4.6v13.7h-1.6C103.6 101.5 103.6 87.8 103.6 87.8zM112.3 86.3h9.2v1.5h-7.6v5.3h7.6v1.5h-7.6v5.3h7.6v1.6h-9.2V86.3zM129.6 95l-4.3 6.6h-1.8l5.2-7.8 -4.8-7.4h1.8l4 6 4-6h1.8l-4.9 7.3 5.2 7.9H134L129.6 95zM142.9 86.3h1.8l5.8 15.2h-1.7l-1.5-3.9h-6.9l-1.5 3.9h-1.7L142.9 86.3zM140.9 96.1h5.8l-2.9-7.6L140.9 96.1zM157.3 101.7c-1.2 0-2.3-0.2-3.2-0.7s-1.6-1.2-2.2-2.1l1.4-1c0.5 0.8 1.1 1.4 1.7 1.8 0.6 0.4 1.4 0.6 2.3 0.6 0.5 0 0.9-0.1 1.3-0.2 0.4-0.1 0.7-0.3 1-0.6 0.3-0.3 0.5-0.6 0.7-0.9 0.2-0.4 0.2-0.7 0.2-1.2s-0.1-0.9-0.3-1.2c-0.2-0.3-0.5-0.6-0.8-0.8 -0.3-0.2-0.7-0.4-1.2-0.6 -0.4-0.2-0.9-0.3-1.4-0.5s-1-0.4-1.6-0.6c-0.5-0.2-1-0.5-1.4-0.8s-0.7-0.7-1-1.2c-0.2-0.5-0.4-1-0.4-1.7 0-0.6 0.1-1.1 0.4-1.6 0.2-0.5 0.6-0.9 1-1.3s0.9-0.6 1.5-0.8c0.6-0.2 1.2-0.3 1.9-0.3 1.1 0 2 0.2 2.8 0.6s1.4 1 2 1.7l-1.3 1c-0.8-1.2-1.9-1.8-3.4-1.8 -0.4 0-0.8 0.1-1.2 0.2s-0.7 0.3-0.9 0.5c-0.3 0.2-0.5 0.5-0.6 0.8s-0.2 0.6-0.2 1 0.1 0.8 0.3 1.1c0.2 0.3 0.5 0.6 0.8 0.8 0.3 0.2 0.7 0.4 1.2 0.6 0.4 0.2 0.9 0.3 1.4 0.5s1 0.4 1.6 0.6c0.5 0.2 1 0.5 1.4 0.8s0.7 0.7 1 1.2 0.4 1.1 0.4 1.8c0 0.6-0.1 1.1-0.3 1.6s-0.6 1-1 1.4 -0.9 0.7-1.5 1C158.7 101.6 158.1 101.7 157.3 101.7z"/><path class="st0" d="M33 81c-3.2 0-6.1-0.6-8.9-1.8 -2.8-1.2-5.2-2.8-7.2-4.9 -2.1-2.1-3.7-4.5-4.9-7.3s-1.8-5.8-1.8-8.9c0-3.2 0.6-6.1 1.8-8.9 1.2-2.8 2.8-5.2 4.9-7.3s4.5-3.7 7.2-4.9c2.8-1.2 5.7-1.8 8.9-1.8 3.2 0 6.1 0.6 8.9 1.8 2.8 1.2 5.2 2.8 7.3 4.9s3.7 4.5 4.9 7.3 1.8 5.7 1.8 8.9 -0.6 6.2-1.8 8.9c-1.2 2.8-2.8 5.2-4.9 7.3S44.7 78 42 79.2C39.2 80.4 36.2 81 33 81zM33 72.7c2 0 3.9-0.4 5.6-1.2 1.7-0.8 3.3-1.8 4.6-3.1 1.3-1.3 2.3-2.8 3.1-4.6 0.8-1.8 1.1-3.6 1.1-5.6s-0.4-3.9-1.1-5.6c-0.8-1.8-1.8-3.3-3.1-4.6s-2.8-2.3-4.6-3.1C36.9 44 35 43.7 33 43.7s-3.9 0.4-5.6 1.2 -3.3 1.8-4.5 3.1c-1.3 1.3-2.3 2.8-3.1 4.6 -0.8 1.8-1.1 3.6-1.1 5.6s0.4 3.9 1.1 5.6c0.8 1.8 1.8 3.3 3.1 4.6 1.3 1.3 2.8 2.3 4.5 3.1C29.2 72.3 31.1 72.7 33 72.7zM59.5 35.9h15.3c2.3 0 4.5 0.4 6.4 1.3 2 0.8 3.6 2 5.1 3.4 1.4 1.4 2.5 3.1 3.4 5.1 0.8 2 1.2 4 1.2 6.2s-0.4 4.3-1.2 6.2c-0.8 2-1.9 3.6-3.4 5.1 -1.4 1.4-3.1 2.6-5.1 3.4 -2 0.8-4.1 1.3-6.4 1.3H68v12.7h-8.5V35.9zM68 43.8v16.1h6.2c1.2 0 2.3-0.2 3.3-0.6 1-0.4 1.8-1 2.6-1.7 0.7-0.7 1.3-1.6 1.6-2.6 0.4-1 0.6-2 0.6-3.1s-0.2-2.1-0.6-3.1 -0.9-1.8-1.6-2.6c-0.7-0.7-1.6-1.3-2.6-1.7s-2.1-0.6-3.3-0.6H68V43.8zM94.8 35.9h26.4V44h-17.9v10h17.9v8.1h-17.9v10.2h17.9v8.1H94.8V35.9zM125.6 35.9h9.6l18.9 30v-30h8.5v44.5h-9l-19.5-30.9v30.9h-8.5C125.6 80.4 125.6 35.9 125.6 35.9z"/></svg>
