<svg id="Layer_1" data-name="Layer 1" xmlns="http://www.w3.org/2000/svg" viewBox="0 0 152.6 98.14"><title>open_virginia</title><path d="M15.75,18.2,15,19.7c-2,3.6-.8,7.3,3.2,7a11.48,11.48,0,0,0,7.2-3.5v.1c0,1.9,1.5,2.9,3.3,2.8s4.1-1.4,5.6-4.1l1.3-2.3a10.64,10.64,0,0,0,3.5-.9l-3.6,6.5,2.9-.2,3.3-6c5.3-7.8,7.8-7.3,6.4-4.9l-6,10.6,2.9-.2,3.2-5.8c5.4-8,7.9-7.6,6.5-5.1L51,20.4c-1.2,2.2-.4,4.1,1.9,3.9,1.7-.1,3.6-1.6,5.4-3.4.1,1.8,1.6,2.9,3.9,2.8,3.2-.2,6.5-3,8.8-5.9.2-.2-.4-1-1.1-.9l-.2.2c-2.1,2.5-4.7,4.6-6.7,4.8-1.8.1-2.8-.9-1.5-3.3l.3-.5c1.8.6,5.3,0,7.4-3.8l.4-.7c1.5-2.7.1-4.6-2.3-4.4A6.56,6.56,0,0,0,62,12.9l-2.8,4.9h-.1c-2.1,2.5-4.1,4.6-5.3,4.7-.6,0-1-.4-.3-1.5l4.1-7.5c1.2-2.3.1-3.7-1.5-3.6s-3.2,1.3-5.1,3.8c1-2.1-.2-3.4-1.7-3.3s-3.1,1.2-4.9,3.6l1.7-3.1-2.8.1-2.5,4.4-.1.1a7.1,7.1,0,0,1-4.4,2.5l.1-.2c1.9-3.4,1.2-7.1-3-6.8a5.08,5.08,0,0,0-4.1,3.3l-3,5.6h0l-.2.2c-2.1,2.5-4.6,4.6-7.4,4.8-1.9.1-3.1-1.7-1.4-4.7l.8-1.5a8.53,8.53,0,0,0,1.6,0,10.88,10.88,0,0,0,8.7-6.1,8.3,8.3,0,0,0,1.1-3.9c0-2.6-1.7-4.1-3.8-4-1.6.1-3.4,1.3-4.7,3.7l-4.4,8a4.18,4.18,0,0,1-2.5-3.9,5.66,5.66,0,0,1,1.8-3.7c.3-1-.8-1.5-.8-1.5a7.07,7.07,0,0,0-2.9,5.5A5.82,5.82,0,0,0,15.75,18.2Zm48.7-5c1.6-2.9,4.5-2.7,2.8.4l-.4.7c-1.4,2.4-3.2,2.5-4.3,2.2ZM33.35,13c1.6-.1,2,1.9.9,3.8l-.6,1.2a2.7,2.7,0,0,1-2-2.7A2.21,2.21,0,0,1,33.35,13Zm-5.1,8.6,1.9-3.4a5.81,5.81,0,0,0,2.7,1.4l-1.6,2.9A3,3,0,0,1,29,24.1a1,1,0,0,1-1.1-1C27.75,22.7,27.85,22.3,28.25,21.6Zm-5-12a3.89,3.89,0,0,1,2.6-2.3c1.1-.1,1.6.6,1.6,1.6,0,2.7-3.2,7.7-7.7,8h-.6Zm62.3-3.1a1.84,1.84,0,0,0,1.7-1.8,1.43,1.43,0,0,0-1.7-1.5A1.69,1.69,0,0,0,84,5,1.4,1.4,0,0,0,85.55,6.5Zm4.7,16.9,6.7-12.8c1.3-2.3.1-3.7-1.5-3.6a6,6,0,0,0-3.9,2.4l1.1-1.9-2.8.2-4.5,8-.3.2c-2.1,2.5-4.1,4.6-5.3,4.7-.6,0-1-.4-.3-1.5L85.55,8l-2.8.2-5.7,10.3c-1.2,2.2-.4,4.1,1.9,3.9a6.82,6.82,0,0,0,3.6-1.8l-.7,1.3,2.9-.2,4.4-7.9c4.4-5.8,6.3-5.2,5.1-3l-6.6,12.5" transform="translate(-10.25 -3.19)" fill="#fff"/><path d="M101.35,14.3h3.7l1.8,9a7.65,7.65,0,0,1,.2,1.5h0a7.65,7.65,0,0,1,.2-1.5l2.2-9h2.8l2.2,9a7.65,7.65,0,0,1,.2,1.5h0a7.65,7.65,0,0,1,.2-1.5l2-9h3.7l-3.5,14.4h-4l-1.8-7.3c-.2-.9-.3-1.7-.3-1.7h0s-.1.8-.3,1.7l-1.8,7.3h-4Zm21.4,0h9v3h-5.5V20h4.4v3h-4.4v2.7H132v3h-9.3V14.3Zm12-.3h3.1l-1.8,5.1h-2.4Zm5,.3h5a8.54,8.54,0,0,1,2.8.3,4.25,4.25,0,0,1,2.7,4.2,4.25,4.25,0,0,1-2.2,3.9h0a9.25,9.25,0,0,1,.5.9l2.8,5h-3.9l-2.6-4.9h-1.7v4.9h-3.5V14.3Zm5,6.5a1.63,1.63,0,0,0,1.8-1.8c0-1.1-.4-1.7-2.2-1.7h-1.2v3.5Zm8.7-6.5h9v3h-5.4V20h4.4v3h-4.4v2.7h5.8v3h-9.3V14.3Z" transform="translate(-10.25 -3.19)" fill="#fff"/><path d="M88.75,32.4a4.11,4.11,0,0,1-2.6-.9,3.6,3.6,0,0,1-.6-4.6.1.1,0,0,1,.1-.1c-12.8.9-74.5,5.5-74.5,5.5a1.52,1.52,0,0,1,.7-1.8c2.8-.2,66.7-5.7,75.2-6.2l2.3-4.2,2.1,1.2-1.7,3.2a4.18,4.18,0,0,1,3.1,2.6,4.27,4.27,0,0,1-1.7,4.8A6.44,6.44,0,0,1,88.75,32.4Zm-.3-5.9c-.3.5-.6,1-.8,1.4s-.5,1.3,0,1.7a1.78,1.78,0,0,0,2,.1,1.94,1.94,0,0,0,.9-2C90.35,27,89.55,26.6,88.45,26.5Z" transform="translate(-10.25 -3.19)" fill="#fff"/><path d="M33.05,81a22.12,22.12,0,0,1-8.9-1.8A21.39,21.39,0,0,1,17,74.3a22.87,22.87,0,0,1-4.9-7.3,22.47,22.47,0,0,1-1.8-8.9,22.12,22.12,0,0,1,1.8-8.9A22.87,22.87,0,0,1,17,41.9a23.58,23.58,0,0,1,7.2-4.9A22.9,22.9,0,0,1,42,37a22.77,22.77,0,0,1,12.2,12.2A22.12,22.12,0,0,1,56,58.1a21.78,21.78,0,0,1-1.8,8.9,22.87,22.87,0,0,1-4.9,7.3,23.58,23.58,0,0,1-7.2,4.9A22.6,22.6,0,0,1,33.05,81Zm0-8.3a13.09,13.09,0,0,0,5.6-1.2,16.19,16.19,0,0,0,4.6-3.1,14.9,14.9,0,0,0,3.1-4.6,13.34,13.34,0,0,0,1.1-5.6,14.71,14.71,0,0,0-1.1-5.6,14.51,14.51,0,0,0-7.7-7.7,11.77,11.77,0,0,0-5.6-1.2,13.09,13.09,0,0,0-5.6,1.2A14.44,14.44,0,0,0,23,48a14.9,14.9,0,0,0-3.1,4.6,13.34,13.34,0,0,0-1.1,5.6,14.71,14.71,0,0,0,1.1,5.6A14.9,14.9,0,0,0,23,68.4a15.7,15.7,0,0,0,4.5,3.1A13.76,13.76,0,0,0,33.05,72.7Zm26.5-36.8h15.3a15,15,0,0,1,6.4,1.3,16.27,16.27,0,0,1,5.1,3.4,16.85,16.85,0,0,1,3.4,5.1A16.3,16.3,0,0,1,91,51.9a15.93,15.93,0,0,1-1.2,6.2,14.73,14.73,0,0,1-3.4,5.1,15.2,15.2,0,0,1-5.1,3.4,17,17,0,0,1-6.4,1.3h-6.8V80.6h-8.5Zm8.5,7.9V59.9h6.2a8.81,8.81,0,0,0,3.3-.6,9,9,0,0,0,2.6-1.7,6.33,6.33,0,0,0,1.6-2.6,8.31,8.31,0,0,0,0-6.2,8.69,8.69,0,0,0-1.6-2.6,7.82,7.82,0,0,0-2.6-1.7,8.81,8.81,0,0,0-3.3-.6h-6.2Zm26.8-7.9h26.4V44h-17.9V54h17.9v8.1h-17.9V72.3h17.9v8.1H94.85Zm30.8,0h9.6l18.9,30v-30h8.5V80.4h-9l-19.5-30.9V80.4h-8.5Z" transform="translate(-10.25 -3.19)" fill="#fff"/><path d="M39.9,85.07h1.83l4.89,13.57,4.89-13.57h1.83l-5.87,16H45.77Zm16,0h1.71v16H55.92Zm5,0h5.75a6.92,6.92,0,0,1,2.2.37,5.13,5.13,0,0,1,1.71,1.1,4.65,4.65,0,0,1,1.1,1.59,5.07,5.07,0,0,1,.37,2,8.41,8.41,0,0,1-.24,1.59A2.91,2.91,0,0,1,71.08,93a4.67,4.67,0,0,1-1.1,1.1,4.13,4.13,0,0,1-1.47.73L72.18,101h-2l-3.3-5.75H62.65V101H60.93V85.07Zm1.71,1.59v7.09h3.91a3.38,3.38,0,0,0,1.59-.37,4.39,4.39,0,0,0,1.22-.86,2.89,2.89,0,0,0,.73-1.1,5.2,5.2,0,0,0,.24-1.34,4.4,4.4,0,0,0-.24-1.34,2.49,2.49,0,0,0-.73-1.1,2.54,2.54,0,0,0-1.22-.73,6.19,6.19,0,0,0-1.59-.24ZM82.7,101.33a9.88,9.88,0,0,1-3.3-.61A9.42,9.42,0,0,1,76.83,99a7.28,7.28,0,0,1-1.71-2.57,8.57,8.57,0,0,1,0-6.36,7.28,7.28,0,0,1,1.71-2.57,6.78,6.78,0,0,1,2.69-1.71,7.24,7.24,0,0,1,3.3-.61,13.47,13.47,0,0,1,2.2.24,9.46,9.46,0,0,1,2,.86,16.44,16.44,0,0,1,1.71,1.34,5.51,5.51,0,0,1,1.22,1.71l-1.47.86a7.06,7.06,0,0,0-2.2-2.45,6.15,6.15,0,0,0-3.3-1,6.22,6.22,0,0,0-2.69.49,6.39,6.39,0,0,0-2.08,1.47,7.57,7.57,0,0,0-1.34,2.08,7,7,0,0,0,0,5.14A6.1,6.1,0,0,0,78.17,98a6.39,6.39,0,0,0,2.08,1.47,6,6,0,0,0,2.57.49,7.35,7.35,0,0,0,2.45-.37,4.6,4.6,0,0,0,1.83-1.1,5.51,5.51,0,0,0,1.22-1.71,5.82,5.82,0,0,0,.61-2.2H82.58V93h8.19v.49a9.12,9.12,0,0,1-.49,3.18,8.68,8.68,0,0,1-1.59,2.69,8.12,8.12,0,0,1-2.57,1.83C85.14,101.09,84,101.33,82.7,101.33ZM93.58,85.07h1.71v16H93.58Zm5,0h2L110,98.28V85.07h1.71v16h-1.83l-9.54-13.33v13.33H98.59Zm16.38,0h1.71v16H115Zm10.27,0h1.83l6.11,16h-1.71l-1.59-4h-7.34l-1.59,4h-1.83Zm-2.08,10.39h6.11l-3.06-7.95Z" transform="translate(-10.25 -3.19)" fill="#fff"/></svg>