<svg xmlns="http://www.w3.org/2000/svg" width="16" height="16" viewBox="0 0 16 16"><title>Custom Ink Location Map Pin</title><g fill="#fff"><path d="M7.934 0.348C3.534 0.348 0.284 3.598 0.284 7.798 0.284 12.098 3.534 15.448 7.934 15.448 12.334 15.448 15.584 12.098 15.584 7.798 15.584 3.598 12.334 0.348 7.934 0.348ZM11.334 8.348C10.934 9.248 9.134 10.998 8.384 12.448 8.184 12.848 7.734 12.898 7.534 12.448 6.884 11.048 4.934 9.348 4.434 8.248 4.284 7.898 4.184 7.498 4.184 7.098L4.184 6.898C4.184 4.748 5.834 3.098 7.934 3.098 10.034 3.098 11.684 4.748 11.684 6.848 11.684 7.348 11.534 7.848 11.334 8.348Z"/><path d="M7.934 5.048L7.934 5.048C7.034 5.048 6.334 5.748 6.334 6.648L6.334 6.648C6.334 7.548 7.034 8.248 7.934 8.248L7.934 8.248C8.834 8.248 9.534 7.548 9.534 6.648L9.534 6.648C9.534 5.798 8.834 5.048 7.934 5.048Z"/></g></svg>
