<?xml version="1.0" standalone="no"?>
<!DOCTYPE svg PUBLIC "-//W3C//DTD SVG 1.1//EN" "http://www.w3.org/Graphics/SVG/1.1/DTD/svg11.dtd">
<svg xmlns="http://www.w3.org/2000/svg">
<metadata>Copyright (C) 2017 by original authors @ fontello.com</metadata>
<defs>
<font id="inkicons" horiz-adv-x="1000" >
<font-face font-family="inkicons" font-weight="400" font-stretch="normal" units-per-em="1000" ascent="850" descent="-150" />
<missing-glyph horiz-adv-x="1000" />
<glyph glyph-name="menu" unicode="&#xe800;" d="M85 696h1323c46 0 84 31 84 77s-38 77-84 77h-1323c-46 0-85-31-85-77s39-77 85-77z m1323-269h-1323c-46 0-85-31-85-77s39-77 85-77h1323c46 0 84 31 84 77s-38 77-84 77m0-423h-1323c-46 0-85-31-85-77s39-77 85-77h1323c46 0 84 31 84 77s-38 77-84 77" horiz-adv-x="1492" />

<glyph glyph-name="chat" unicode="&#xe801;" d="M1007 384l-30 0 0 165c0 104-85 189-189 189l-599 0c-104 0-189-85-189-189l0-572c0-61 48-110 110-110 30 0 60 13 79 34l96 96 223 0 0-6c0-104 84-189 188-189l302 0 34-34c18-18 43-29 69-29 52 0 95 42 95 95l0 362c0 104-85 188-189 188l0 0z m-885-415l-1-1c-1-2-5-5-10-5-9 0-15 6-15 14l0 572c0 51 42 93 93 93l599 0c51 0 93-42 93-93l0-363c0-52-42-94-93-94l-542 0-124-123 0 0z m481 71l185 0c10 0 20 1 29 4 67 13 116 73 116 142l0 103 74 0c52 0 94-42 94-93l0-361-63 63-341 0c-52 0-94 42-94 93l0 49 0 0z" horiz-adv-x="1196" />

<glyph glyph-name="email" unicode="&#xe802;" d="M1314 564l-1104 0c-116 0-210-94-210-209l0-581c0-115 94-209 210-209l1105 0c115 0 209 94 209 209l0 581c0 115-94 209-210 209l0 0z m-296-520l373 332c2-9 4-18 4-28l0-568c0-15-4-29-10-42l-367 306 0 0z m-174-43c-47-30-125-29-172 0l-478 435c9 3 18 5 28 5l1080 0c11 0 21-2 30-5l-488-435 0 0z m-715-220l0 568c0 10 2 19 5 29l367-334-362-303c-6 12-10 25-10 40l0 0z m434 206l55-50 5-4c38-26 87-39 135-39 49 0 96 12 134 38l62 55 358-299c-4 0-7-1-11-1l-1079 0c-5 0-10 1-15 2l356 298 0 0z" horiz-adv-x="1524" />

<glyph glyph-name="phone" unicode="&#xe803;" d="M827 850l-294 0c-93 0-168-75-168-167l0-664c0-92 76-167 168-167l294 0c92 0 167 75 167 167l0 664c0 92-75 167-167 167l0 0z m-294-75l294 0c45 0 83-33 90-77l-475 0c7 44 45 77 91 77l0 0z m386-756c0-51-41-92-92-92l-294 0c-51 0-93 41-93 92l0 103 479 0 0-103 0 0z m0 141l-479 0 0 501 479 0 0-501 0 0z m-239-198c34 0 62 28 62 63 0 34-28 62-62 62-35 0-63-28-63-62 0-35 28-63 63-63l0 0z m0 87c13 0 24-11 24-25 0-13-11-24-24-24-14 0-25 11-25 24 0 14 11 25 25 25z m-425 411c13 11 15 31 4 45-11 13-31 15-45 4-44-36-69-89-69-145 0-56 25-109 69-145 6-5 13-7 20-7 9 0 19 4 25 11 11 14 9 34-4 45-29 24-46 59-46 96 0 37 17 72 46 96z m-185-96c0 77 34 150 94 199 14 11 16 31 5 45-11 14-32 15-45 5-75-62-118-152-118-249 0-97 43-187 118-248 6-5 13-8 20-8 9 0 19 4 25 12 11 14 9 34-5 45-60 49-94 122-94 199z" horiz-adv-x="990" />

<glyph glyph-name="close" unicode="&#xe804;" d="M968 662l-312-312 312-312c43-43 43-113 0-156s-113-43-156 0l-312 312-312-312c-43-43-113-43-156 0-43 43-43 113 0 156l312 312-312 312c-43 43-43 113 0 156s113 43 156 0l312-312 312 312c43 43 113 43 156 0 43-43 43-113 0-156z" horiz-adv-x="1000" />

<glyph glyph-name="rss" unicode="&#xe805;" d="M0-16q0 55 39 94t94 39 94-39 39-94q0-56-39-95t-94-38-94 39-39 94z m0 335l0 191q179 0 331-88t241-241 88-331l-192 0q0 194-137 331-138 138-331 138z m0 339l0 192q203 0 388-79t319-214 214-319 79-388l-192 0q0 164-64 314t-172 258-258 172-314 64z" horiz-adv-x="1000" />

<glyph glyph-name="warning" unicode="&#xe806;" d="M571 83v106q0 8-5 13t-12 5h-108q-7 0-12-5t-5-13v-106q0-8 5-13t12-6h108q7 0 12 6t5 13z m-1 208l10 257q0 6-5 10-7 6-14 6h-122q-6 0-14-6-5-4-5-12l9-255q0-5 6-9t13-3h103q8 0 14 3t5 9z m-7 522l428-786q20-35-1-70-9-17-26-26t-35-10h-858q-18 0-35 10t-26 26q-21 35-1 70l429 786q9 17 26 27t36 10 36-10 27-27z" horiz-adv-x="1000" />

<glyph glyph-name="error" unicode="&#xe807;" d="M500 850c-276 0-500-224-500-500s224-500 500-500 500 224 500 500-224 500-500 500l0 0z m94-812h-188v156h188v-156l0 0z m0 218h-188v407h188v-407l0 0z" horiz-adv-x="1000" />

<glyph glyph-name="info" unicode="&#xe808;" d="M500 850c-276 0-500-224-500-500s224-500 500-500 500 224 500 500-224 500-500 500z m-94-187h188v-125h-188v125z m250-625h-312v125h62v187h-62v156h62 188v-156-187h62v-125z" horiz-adv-x="1000" />

<glyph glyph-name="success" unicode="&#xe809;" d="M500 850c-276 0-500-224-500-500s224-500 500-500 500 224 500 500-224 500-500 500z m103-659l-75-81-64-70 0 0-9-10-283 262 148 161 122-113 241 260 161-148-241-261 0 0z" horiz-adv-x="1000" />

<glyph glyph-name="forward" unicode="&#xe80a;" d="M1000 493q0-15-11-25l-285-286q-11-11-25-11t-25 11-11 25v143h-125q-55 0-98-3t-86-12-74-24-59-39-45-56-27-77-10-101q0-31 3-69 0-4 2-13t1-15q0-8-5-14t-13-6q-9 0-15 10-4 5-8 12t-7 17-6 13q-71 159-71 252 0 111 30 186 90 225 488 225h125v143q0 14 11 25t25 10 25-10l285-286q11-11 11-25z" horiz-adv-x="1000" />

<glyph glyph-name="link" unicode="&#xe80b;" d="M294 116q14 14 34 14t36-14q32-34 0-70l-42-40q-56-56-132-56-78 0-134 56t-56 132q0 78 56 134l148 148q70 68 144 77t128-43q16-16 16-36t-16-36q-36-32-70 0-50 48-132-34l-148-146q-26-26-26-64t26-62q26-26 63-26t63 26z m450 574q56-56 56-132 0-78-56-134l-158-158q-74-72-150-72-62 0-112 50-14 14-14 34t14 36q14 14 35 14t35-14q50-48 122 24l158 156q28 28 28 64 0 38-28 62-24 26-56 31t-60-21l-50-50q-16-14-36-14t-34 14q-34 34 0 70l50 50q54 54 127 51t129-61z" horiz-adv-x="800" />

<glyph glyph-name="down-open-big" unicode="&#xe80c;" d="M63 570l370-356 372 356q22 26 48 0 26-22 0-48l-396-392q-22-22-48 0l-396 392q-26 26 0 48 24 24 50 0z" horiz-adv-x="866" />

<glyph glyph-name="up-open-big" unicode="&#xe80d;" d="M804 130l-372 358-370-358q-26-22-50 0-24 24 0 50l396 390q26 26 48 0l396-390q24-26 0-50-26-22-48 0z" horiz-adv-x="864" />

<glyph glyph-name="help" unicode="&#xe80e;" d="M1164 79c-95 31-103 87-103 170l-1 198c0 109-47 210-134 286-86 75-200 116-323 116-1 0-3 0-4-1-2 1-3 1-5 1-123 0-237-41-323-116-86-76-134-177-134-286l-1-198c0-83-7-139-103-170-13-5-23-14-29-27-5-12-5-26 0-38 14-37 60-125 185-154 15-4 31-6 47-6 82 0 152 45 179 65 55-44 118-67 184-67 65 0 128 23 183 66 26-19 97-64 179-64 16 0 32 2 47 6 125 29 171 117 185 154 5 12 5 26 0 38-5 13-16 22-29 27l0 0z m-360-62c-51-69-124-113-205-113-155 0-280 157-280 350 0 10-8 17-17 18-11 0-19-8-19-18 0-104 34-199 89-269-7-5-26-19-51-30-29-14-72-28-114-18-64 15-99 51-116 79 124 57 124 165 124 232l1 199c0 85 38 166 107 227 71 61 168 96 271 96 2 0 3 0 5 0 1 0 3 0 4 0 104 0 200-35 271-96 69-61 107-142 107-228l1-139c-18 18-41 31-68 35l0 133c0 10-8 18-18 18-156 0-190 108-191 113-3 8-10 13-18 13-8 0-15-6-17-14 0-1-27-114-149-168-96-43-208-27-209-27-10 1-19-6-21-16-1-9 6-19 15-20 15-2 128-15 230 30 90 40 134 108 154 151 6-9 14-19 24-30 29-29 80-63 164-68l0-129c0-1 0-1 0-2l0-87c-1-41-8-80-20-117-55-80-145-128-242-128-10 0-18-8-18-18 0-10 8-18 18-18 68 0 134 21 188 59z m110 289c37-9 65-42 65-81 0-40-35-81-76-86 16 65 11 167 11 167l0 0z m76-369c-73-17-149 36-165 48 27 35 50 76 65 121 0 0 0 1 1 1 1-1 3-1 5-1 39 0 73 18 95 47 12-51 42-103 115-137-17-28-51-64-116-79z m-286 167c7 12 4 31-19 23-27-11-56-16-87-16-30 0-59 5-86 16-23 8-26-11-19-23 22-35 59-58 106-59 43 1 83 24 105 59z m-174 174c0 29-27 53-59 53-33 0-60-24-60-53 0-14 7-27 17-37 31 8 63 13 97 16 3 7 5 14 5 21z m264 0c0 29-26 53-59 53-33 0-60-24-60-53 0-8 2-15 6-21 33-4 65-10 94-17 12 9 19 23 19 38z" horiz-adv-x="1198" />

<glyph glyph-name="instagram" unicode="&#xe80f;" d="M500 760c32 0 63 0 95 0 18 0 37 0 55-1 14 0 28-1 42-2 27-1 55-3 81-10 26-7 50-18 71-36 12-11 23-23 32-37 7-12 13-24 17-37 9-27 13-55 14-82 1-15 1-30 2-45 0-17 1-33 1-49 0-28 0-55 0-83 0-35 0-70 0-105 0-20 0-41 0-62-1-14-1-28-2-42-1-25-2-50-7-75-4-24-13-48-26-69-18-28-43-49-73-62-23-9-46-15-71-18-20-2-41-3-61-3-15-1-30-1-45-1-24-1-48-1-72-1-37 0-73 0-109 0-23 0-47 0-70 1-15 0-30 0-45 1-21 1-42 1-64 4-24 2-48 9-70 18-14 7-28 16-39 26-13 11-23 24-32 38-13 21-21 45-25 69-5 24-5 49-7 73 0 15-1 29-1 43 0 21 0 42-1 63 0 35 0 71 0 106 0 27 0 54 1 81 0 16 0 32 1 48s1 32 2 48c1 27 5 54 14 80 5 13 11 26 19 37 9 14 20 26 33 37 20 17 44 28 70 35 26 6 53 8 80 9 14 1 28 2 42 2 19 0 37 1 56 1 31 0 61 0 92 0m0 90c-34 0-68 0-103 0-19 0-38-1-57-1-17-1-33-1-49-2-35-2-71-7-104-18-34-11-66-29-92-53-15-13-29-28-40-44-10-15-19-31-26-48-12-30-20-63-23-95-3-23-4-46-4-68-1-17-1-35-2-52 0-29 0-59 0-89 0-38 0-75 0-113 0-22 0-44 1-65 0-16 1-31 2-47 1-32 4-65 12-97 8-33 22-64 41-92 23-31 52-57 86-76 29-15 60-25 93-31 27-4 55-6 83-7 16 0 32-1 48-1 26-1 51-1 77-1 39 0 79 0 118 0 25 0 50 0 75 1 16 0 32 1 47 1 29 1 58 3 86 8 32 6 64 17 92 32 34 19 63 46 85 78 19 27 32 59 40 91 7 32 10 64 11 96 1 16 2 31 2 47 0 22 0 44 1 66 0 38 0 77 0 115 0 29 0 58-1 87 0 17 0 34-1 51 0 23-1 47-4 70-4 33-12 65-25 95-15 35-38 66-67 91-27 24-58 40-92 51-34 11-69 15-105 17-15 1-31 1-47 2-19 0-39 0-59 1-33 0-66 0-99 0l0 0z m0-243c-141 0-256-115-256-256s115-256 257-256c141 0 255 115 255 256 0 126-92 234-217 253-13 2-26 3-39 3z m0-424c-92 0-166 75-166 167s75 166 166 166c92-1 166-75 166-167 0-82-59-151-140-164-9-1-17-2-26-2z m327 434c0-33-27-60-60-60-33 0-60 27-60 60 0 33 27 60 60 60 30 0 55-21 59-51 1-3 1-6 1-9z" horiz-adv-x="1000" />

<glyph glyph-name="spinner" unicode="&#xe810;" d="M843 261q0-3 0-4-36-150-150-243t-267-93q-81 0-157 31t-136 88l-72-72q-11-11-25-11t-25 11-11 25v250q0 14 11 25t25 11h250q14 0 25-11t10-25-10-25l-77-77q40-36 90-57t105-20q74 0 139 37t104 99q6 10 30 66 4 13 16 13h107q8 0 13-6t5-12z m14 446v-250q0-14-10-25t-26-11h-250q-14 0-25 11t-10 25 10 25l77 77q-82 77-194 77-75 0-140-37t-104-99q-6-10-29-66-5-13-17-13h-111q-7 0-13 6t-5 12v4q36 150 151 243t268 93q81 0 158-31t137-88l72 72q11 11 25 11t26-11 10-25z" horiz-adv-x="857.1" />

<glyph glyph-name="envelope" unicode="&#xe811;" d="M1000 454v-443q0-37-26-63t-63-27h-822q-36 0-63 27t-26 63v443q25-27 56-49 202-137 278-192 32-24 51-37t53-27 61-13h2q28 0 61 13t53 27 51 37q95 68 278 192 32 22 56 49z m0 164q0-44-27-84t-68-69q-210-146-262-181-5-4-23-17t-30-22-29-18-32-15-28-5h-2q-12 0-27 5t-32 15-30 18-30 22-23 17q-51 35-147 101t-114 80q-35 23-65 64t-31 77q0 43 23 72t66 29h822q36 0 63-26t26-63z" horiz-adv-x="1000" />

<glyph glyph-name="calendar" unicode="&#xe812;" d="M71-79h161v161h-161v-161z m197 0h178v161h-178v-161z m-197 197h161v178h-161v-178z m197 0h178v178h-178v-178z m-197 214h161v161h-161v-161z m411-411h179v161h-179v-161z m-214 411h178v161h-178v-161z m428-411h161v161h-161v-161z m-214 197h179v178h-179v-178z m-196 482v161q0 7-6 12t-12 6h-36q-7 0-12-6t-6-12v-161q0-7 6-13t12-5h36q7 0 12 5t6 13z m410-482h161v178h-161v-178z m-214 214h179v161h-179v-161z m214 0h161v161h-161v-161z m18 268v161q0 7-5 12t-13 6h-35q-7 0-13-6t-5-12v-161q0-7 5-13t13-5h35q8 0 13 5t5 13z m215 36v-715q0-29-22-50t-50-21h-786q-29 0-50 21t-21 50v715q0 29 21 50t50 21h72v54q0 37 26 63t63 26h36q37 0 63-26t26-63v-54h214v54q0 37 27 63t63 26h35q37 0 64-26t26-63v-54h71q29 0 50-21t22-50z" horiz-adv-x="928.6" />

<glyph glyph-name="phone-classic" unicode="&#xe813;" d="M786 158q0-15-6-39t-12-38q-11-28-68-60-52-28-103-28-15 0-30 2t-32 7-26 8-31 11-28 10q-54 20-97 47-71 44-148 120t-120 148q-27 43-46 97-2 5-10 28t-12 31-8 26-7 32-2 29q0 52 29 104 31 57 59 68 14 6 38 12t39 6q8 0 12-2 10-3 30-42 6-11 16-31t20-35 17-30q2-2 10-14t12-20 4-16q0-11-16-27t-35-31-34-30-16-25q0-5 3-13t4-11 8-14 7-10q42-77 97-132t131-97q1 0 10-6t14-8 11-5 13-2q10 0 25 16t30 34 31 35 28 16q7 0 15-4t20-12 14-10q14-8 30-17t36-20 30-17q39-19 42-29 2-4 2-12z" horiz-adv-x="785.7" />

<glyph glyph-name="right-open-big" unicode="&#xe814;" d="M13-20l358 370-358 372q-26 26 0 48 26 26 48 0l392-394q24-26 0-50l-392-394q-22-26-48 0-26 22 0 48z" horiz-adv-x="465" />

<glyph glyph-name="left-open-big" unicode="&#xe815;" d="M452-20q26-26 0-48-26-26-48 0l-392 394q-24 24 0 50l392 394q22 26 48 0 26-22 0-48l-358-372z" horiz-adv-x="465" />

<glyph glyph-name="print" unicode="&#xe817;" d="M214-7h500v143h-500v-143z m0 357h500v214h-89q-22 0-38 16t-16 38v89h-357v-357z m643-36q0 15-10 25t-26 11-25-11-10-25 10-25 25-10 26 10 10 25z m72 0v-232q0-7-6-12t-12-6h-125v-89q0-22-16-38t-38-16h-536q-22 0-37 16t-16 38v89h-125q-7 0-13 6t-5 12v232q0 44 32 76t75 31h36v304q0 22 16 38t37 16h375q23 0 50-12t42-26l85-85q15-16 27-43t11-49v-143h35q45 0 76-31t32-76z" horiz-adv-x="928.6" />

<glyph glyph-name="check" unicode="&#xe818;" d="M933 534q0-22-16-38l-404-404-76-76q-16-15-38-15t-38 15l-76 76-202 202q-15 16-15 38t15 38l76 76q16 16 38 16t38-16l164-165 366 367q16 16 38 16t38-16l76-76q16-15 16-38z" horiz-adv-x="1000" />

<glyph glyph-name="pinterest" unicode="&#xe81a;" d="M0 491q0 63 27 125t76 115 130 86 178 33q159 0 261-98t102-231q0-171-86-282t-224-112q-45 0-84 21t-56 51l-40-158q-5-19-13-38t-17-38-19-34-19-30-17-24-13-16l-6-8q-3-4-8-3t-6 6q0 1-1 14t-3 27-3 38-1 44 3 48 7 48q11 47 74 313-8 16-13 39t-5 36l-1 15q0 64 33 107t78 42q37 0 58-24t20-62q0-23-8-56t-23-77-20-71q-10-45 18-78t73-33q79 0 131 90t51 216q0 97-63 159t-176 61q-126 0-204-81t-79-194q0-67 38-113 13-15 8-32-2-5-6-23t-6-23q-2-11-10-14t-18 0q-59 24-88 83t-30 136z" horiz-adv-x="774" />

<glyph glyph-name="twitter" unicode="&#xe81b;" d="M920 636q-36-54-94-98l0-24q0-130-60-250t-186-203-290-83q-160 0-290 84 14-2 46-2 132 0 234 80-62 2-110 38t-66 94q10-4 34-4 26 0 50 6-66 14-108 66t-42 120l0 2q36-20 84-24-84 58-84 158 0 48 26 94 154-188 390-196-6 18-6 42 0 78 55 133t135 55q82 0 136-58 60 12 120 44-20-66-82-104 56 8 108 30z" horiz-adv-x="920" />

<glyph glyph-name="facebook" unicode="&#xe81c;" d="M500 644l-142 0q-14 0-25-15t-11-37l0-102 178 0 0-148-178 0 0-442-170 0 0 442-152 0 0 148 152 0 0 86q0 94 59 159t147 65l142 0 0-156z" horiz-adv-x="500" />

<glyph glyph-name="tumblr" unicode="&#xe81d;" d="M0 440l0 142q60 20 101 55 41 33 67 86 26 51 35 127l143 0 0-253 237 0 0-157-237 0 0-256q0-86 9-112 9-24 34-39 34-20 76-20 77 0 151 49l0-157q-63-31-116-43-52-12-112-12-68 0-122 17-55 19-89 50-36 31-52 68-14 34-14 105l0 350-111 0z" horiz-adv-x="616" />

<glyph glyph-name="google" unicode="&#xf1a0;" d="M429 411h404q7-37 7-71 0-121-51-216t-145-149-215-54q-88 0-167 34t-137 91-91 137-34 167 34 167 91 137 137 91 167 34q167 0 287-113l-117-112q-68 67-170 67-72 0-133-37t-97-98-36-136 36-136 97-98 133-37q48 0 89 14t67 33 46 46 28 49 13 43h-243v147z" horiz-adv-x="857.1" />
</font>
</defs>
</svg>
